<svg width="40" height="24" viewBox="0 0 40 24" fill="none" xmlns="http://www.w3.org/2000/svg">
<rect width="40" height="24" rx="4" fill="#003087"/>
<path d="M12 8c-2.2 0-4 1.8-4 4s1.8 4 4 4c1.1 0 2.1-.45 2.83-1.17L16 13.66V16h2V8h-2v2.34l-1.17-1.17C14.1 8.45 13.1 8 12 8z" fill="#009CDE"/>
<path d="M28 8c-2.2 0-4 1.8-4 4s1.8 4 4 4c1.1 0 2.1-.45 2.83-1.17L32 13.66V16h2V8h-2v2.34l-1.17-1.17C30.1 8.45 29.1 8 28 8z" fill="#009CDE"/>
<text x="20" y="19" text-anchor="middle" fill="white" font-family="Arial, sans-serif" font-size="4" font-weight="bold">PayPal</text>
</svg>
