<svg width="40" height="24" viewBox="0 0 40 24" fill="none" xmlns="http://www.w3.org/2000/svg">
<rect width="40" height="24" rx="4" fill="#1A1F71"/>
<path d="M16.7 7.2H14.4L13 16.8H15.3L16.7 7.2Z" fill="white"/>
<path d="M23.4 7.1C22.9 6.9 22.1 6.7 21 6.7C18.7 6.7 17.1 7.9 17.1 9.6C17.1 10.9 18.3 11.6 19.2 12C20.1 12.4 20.4 12.7 20.4 13.1C20.4 13.7 19.6 14 18.9 14C17.9 14 17.4 13.8 16.6 13.4L16.3 13.2L15.9 15.7C16.5 16 17.6 16.2 18.8 16.2C21.3 16.2 22.8 15 22.8 13.2C22.8 12.2 22.2 11.5 20.9 10.9C20.1 10.5 19.6 10.2 19.6 9.7C19.6 9.3 20.1 8.9 21.2 8.9C22.1 8.9 22.7 9.1 23.2 9.3L23.5 9.4L23.9 7L23.4 7.1Z" fill="white"/>
<path d="M28.8 7.2H27C26.4 7.2 26 7.4 25.8 7.9L22.8 16.8H25.3L25.8 15.4H28.9L29.1 16.8H31.2L28.8 7.2ZM26.5 13.3L27.6 10.4L28.2 13.3H26.5Z" fill="white"/>
<path d="M11.4 7.2H9L9 7.3C11.8 8 13.5 9.7 14.1 12.3L13.3 8.1C13.2 7.6 12.8 7.3 12.3 7.2H11.4Z" fill="white"/>
<path d="M12.1 8.1L13.3 7.2H11.4C10.9 7.2 10.5 7.4 10.3 7.9L7.3 16.8H9.8L10.3 15.4H13.4L13.6 16.8H15.7L12.1 8.1ZM11 13.3L12.1 10.4L12.7 13.3H11Z" fill="white"/>
</svg>
