<?xml version="1.0" encoding="utf-8"?>
<!-- Generator: Adobe Illustrator 27.0.0, SVG Export Plug-In . SVG Version: 6.00 Build 0)  -->
<svg version="1.1" id="Capa_1" xmlns="http://www.w3.org/2000/svg" xmlns:xlink="http://www.w3.org/1999/xlink" x="0px" y="0px"
	 viewBox="0 0 1188.9 160" style="enable-background:new 0 0 1188.9 160;" xml:space="preserve">
<style type="text/css">
	.st0{fill:#FFFFFF;}
	.st1{fill:#FF0042;}
</style>
<g>
	<g>
		<g>
			<path class="st0" d="M344,79.1c14.5-7.4,26.8-22.4,24.1-39.6c-2.3-14.9-15.4-24.2-35-24.7H231.5l-28.6,135.4h30.4l2.4-0.1h72.7
				v0.1h2.4c30.4,0,49-20.8,51.1-40.4C363.5,95.7,356.7,84.4,344,79.1z M257.6,44h68.9c3.5,0,6.1,0.9,7.4,2.6c1.6,2,1.5,4.7,1,6.7
				c-1.3,6.4-6.2,9.6-17.9,11.7l-1.4,0.4c-4.5,1-8.5,4.9-9.5,9.5l-1.7,7.7c-1,4.7,1.3,8.9,5.7,10.4c15.1,5.1,21.5,8.1,19.9,16l0,0
				c-1,5.2-4.4,11.5-14,11.5h-74.6L257.6,44z"/>
			<path class="st0" d="M366.1,105.7c0-29.6,24-53.3,54.6-53.3c27.4,0,47.5,18.5,47.5,44.3c0,29.5-23.8,53.3-54.6,53.3
				C386.2,149.9,366.1,131.6,366.1,105.7z M415.2,123.9c14.3,0,24-12.3,24-25.4c0-11.5-8.1-20.2-20.4-20.2c-13.1,0-24,10.8-24,25.4
				C395,115.3,403.2,123.9,415.2,123.9z"/>
			<path class="st0" d="M487.4,17.3h28.9l-22.9,130.5h-28.9L487.4,17.3z"/>
			<path class="st0" d="M506.1,106c0-29.6,24-53.7,53.7-53.7c24,0,44.3,15.3,44.3,41.2c0,5.8-0.6,10.2-2.1,15.8h-67.5
				c1,10.1,9.1,16.4,20.5,16.4c9,0,15.1-5.4,18.6-10.4l24.3,9.3c-7.2,14.3-23.7,25.4-44.1,25.4C526.3,149.9,506.1,131.6,506.1,106
				L506.1,106z M577.6,88.9c-2.1-7.6-9.7-12.3-19-12.3c-8.4,0-15.4,2.6-20.7,12.3H577.6z"/>
			<path class="st0" d="M615.4,116.3l6.5-37.5h-16.8l4.3-24.3h7.4c6.7,0,10.2-4.5,12.5-17.5l1.3-7.4h28.9l-4.5,25h21l-4.3,24.3
				h-20.5l-6.3,35.4c-1.3,7.4,1.7,11,8,11c3.8,0,8.4-0.7,12.1-1.8l-0.1,22.3c-6.2,2.1-13.1,3.2-19.9,3.2
				C622.8,148.8,612.2,134.8,615.4,116.3z"/>
			<path class="st0" d="M665.9,106c0-29.6,24-53.7,53.7-53.7c24,0,44.3,15.3,44.3,41.2c0,5.8-0.6,10.2-2.1,15.8h-67.5
				c1,10.1,9.1,16.4,20.5,16.4c9,0,15.1-5.4,18.6-10.4l24.3,9.3c-7.1,14.4-23.7,25.4-44,25.4C686,149.9,665.9,131.6,665.9,106z
				 M737.5,88.9c-2.1-7.6-9.7-12.3-19-12.3c-8.4,0-15.4,2.6-20.7,12.3H737.5z"/>
			<path class="st0" d="M777.2,54.5h29.5l-1.5,7.9c6.3-6.7,14.2-10.1,23.1-10.1c3.8,0,7.2,0.4,10.8,1.5l-4.5,25.4
				c-3.3-0.7-7.7-1.3-10.8-1.3c-13.2,0-22.7,7.4-24.9,20.5l-8.8,49.4h-29.3L777.2,54.5z"/>
			<path class="st1" d="M866.8,9.9c9.3,0,16.4,7.2,16.4,16.4c0,10.2-9.3,19.4-19.8,19.4c-9.3,0-16.4-7.2-16.4-16.4
				C847,19,856.3,9.9,866.8,9.9z"/>
			<path class="st0" d="M873.3,106.9c0-29,21.1-54.6,51.3-54.6c13.1,0,23.1,3.9,30.4,11.4l1.7-9.1H986l-16.4,93.2h-29l0.7-4.7
				c-6.9,4.7-14.9,6.9-24,6.9C890.5,149.9,873.3,131.6,873.3,106.9z M923.7,123.9c13.5,0,24.8-10.8,24.8-24.9
				c0-11.5-8.8-20.5-21.5-20.5c-13.5,0-24.8,10.8-24.8,24.9C902.2,114.9,911,123.9,923.7,123.9z"/>
		</g>
	</g>
	<polygon class="st0" points="844.4,53.5 873.3,53.5 856.9,146.7 828,146.7 	"/>
</g>
</svg>
