<?xml version="1.0" encoding="utf-8"?>
<!-- Generator: Adobe Illustrator 27.0.0, SVG Export Plug-In . SVG Version: 6.00 Build 0)  -->
<svg version="1.2" baseProfile="tiny"
	 id="Capa_1" xmlns:sodipodi="http://sodipodi.sourceforge.net/DTD/sodipodi-0.dtd" xmlns:inkscape="http://www.inkscape.org/namespaces/inkscape" xmlns:svg="http://www.w3.org/2000/svg" sodipodi:docname="logo.svg"
	 xmlns="http://www.w3.org/2000/svg" xmlns:xlink="http://www.w3.org/1999/xlink" x="0px" y="0px" viewBox="0 0 1188.9 235.7"
	 overflow="visible" xml:space="preserve">
<sodipodi:namedview  bordercolor="#000000" borderopacity="0.25" id="namedview10" inkscape:deskcolor="#d1d1d1" inkscape:pagecheckerboard="0" inkscape:pageopacity="0.0" inkscape:showpageshadow="2" pagecolor="#ffffff">
	</sodipodi:namedview>
<g id="g10">
	<g id="g9">
		<path id="path1" fill="#FFFFFF" d="M234.1,117.1c20.9-10.6,38.5-32.3,34.7-57c-3.3-21.4-22.1-34.8-50.3-35.6H72.1L31,219.3h43.8
			l3.5-0.2h104.6v0.2h3.5c43.7,0,70.5-30,73.6-58.1C262.1,141,252.4,124.7,234.1,117.1z M109.7,66.7h99.2c5,0,8.8,1.3,10.7,3.8
			c2.3,2.9,2.1,6.8,1.4,9.7c-1.8,9.2-8.9,13.8-25.7,16.8l-2,0.6c-6.5,1.4-12.2,7-13.7,13.7l-2.4,11.1c-1.4,6.8,1.8,12.8,8.2,15
			c21.8,7.4,31,11.7,28.6,23l0,0c-1.5,7.5-6.3,16.5-20.2,16.5H86.4L109.7,66.7z"/>
		<path id="path2" fill="#FFFFFF" d="M265.9,155.3c0-42.6,34.6-76.7,78.6-76.7c39.4,0,68.4,26.6,68.4,63.8
			c0,42.4-34.3,76.7-78.6,76.7C294.8,219.1,265.9,192.6,265.9,155.3z M336.6,181.5c20.6,0,34.6-17.7,34.6-36.5
			c0-16.6-11.7-29-29.3-29c-18.8,0-34.6,15.6-34.6,36.5C307.5,169.2,319.2,181.5,336.6,181.5z"/>
		<path id="path3" fill="#FFFFFF" d="M440.5,28.1h41.6l-32.9,187.8h-41.6L440.5,28.1z"/>
		<path id="path4" fill="#FFFFFF" d="M467.4,155.8c0-42.6,34.6-77.3,77.3-77.3c34.6,0,63.8,22,63.8,59.3c0,8.3-0.8,14.7-3,22.8
			h-97.1c1.4,14.5,13.1,23.6,29.5,23.6c12.9,0,21.8-7.8,26.8-15l34.9,13.4c-10.3,20.6-34.1,36.5-63.4,36.5
			C496.4,219.1,467.4,192.6,467.4,155.8L467.4,155.8z M570.3,131.1c-3-10.9-13.9-17.7-27.4-17.7c-12.1,0-22.2,3.8-29.8,17.7H570.3z"
			/>
		<path id="path5" fill="#FFFFFF" d="M624.6,170.6l9.4-53.9h-24.2l6.2-34.9h10.7c9.7,0,14.7-6.5,18-25.2l1.8-10.7h41.6l-6.5,35.9
			h30.3l-6.2,34.9h-29.5l-9.1,51c-1.8,10.7,2.4,15.8,11.5,15.8c5.4,0,12.1-1,17.4-2.6l-0.2,32.1c-8.9,3-18.8,4.6-28.7,4.6
			C635.3,217.5,620,197.4,624.6,170.6z"/>
		<path id="path6" fill="#FFFFFF" d="M697.3,155.8c0-42.6,34.6-77.3,77.3-77.3c34.6,0,63.8,22,63.8,59.3c0,8.3-0.8,14.7-3,22.8
			h-97.1c1.4,14.5,13.1,23.6,29.5,23.6c12.9,0,21.8-7.8,26.8-15l34.9,13.4c-10.3,20.6-34.1,36.5-63.4,36.5
			C726.3,219.1,697.3,192.6,697.3,155.8z M800.4,131.1c-3-10.9-13.9-17.7-27.4-17.7c-12.1,0-22.2,3.8-29.8,17.7H800.4z"/>
		<path id="path7" fill="#FFFFFF" d="M857.5,81.8h42.4l-2.2,11.3c9.1-9.7,20.4-14.5,33.3-14.5c5.4,0,10.3,0.6,15.6,2.2l-6.5,36.5
			c-4.8-1-11.1-1.8-15.6-1.8c-19,0-32.7,10.7-35.9,29.5L876,216.1h-42.2L857.5,81.8z"/>
		<path id="path8" fill="#FFFFFF" d="M956.6,81.8h41.6L974.6,216H933L956.6,81.8z M986.4,17.4c13.4,0,23.6,10.3,23.6,23.6
			c0,14.7-13.4,27.9-28.5,27.9c-13.4,0-23.6-10.3-23.6-23.6C958,30.5,971.3,17.4,986.4,17.4z"/>
		<path id="path9" fill="#FFFFFF" d="M995.8,157.1c0-41.8,30.3-78.6,73.8-78.6c18.8,0,33.3,5.6,43.8,16.4l2.4-13.1h42.2L1134.4,216
			h-41.8l1-6.7c-9.9,6.7-21.4,9.9-34.6,9.9C1020.6,219.1,995.8,192.8,995.8,157.1z M1068.3,181.5c19.4,0,35.7-15.6,35.7-35.9
			c0-16.6-12.6-29.5-30.9-29.5c-19.4,0-35.7,15.6-35.7,35.9C1037.4,168.6,1050.1,181.5,1068.3,181.5z"/>
	</g>
</g>
</svg>
