<?xml version="1.0" encoding="utf-8"?>
<!-- Generator: Adobe Illustrator 27.0.0, SVG Export Plug-In . SVG Version: 6.00 Build 0)  -->
<svg version="1.1" id="Capa_1" xmlns="http://www.w3.org/2000/svg" xmlns:xlink="http://www.w3.org/1999/xlink" x="0px" y="0px"
	 viewBox="0 0 80 50" style="enable-background:new 0 0 80 50;" xml:space="preserve">
<style type="text/css">
	.st0{fill:#FFFFFF;}
	.st1{fill-rule:evenodd;clip-rule:evenodd;fill:#ED0006;}
	.st2{fill-rule:evenodd;clip-rule:evenodd;fill:#F9A000;}
	.st3{fill-rule:evenodd;clip-rule:evenodd;fill:#FF5E00;}
</style>
<path class="st0" d="M6,0h68c3.3,0,6,2.7,6,6v38c0,3.3-2.7,6-6,6H6c-3.3,0-6-2.7-6-6V6C0,2.7,2.7,0,6,0z"/>
<path class="st1" d="M40,34.9c-2.3,1.9-5.2,3.1-8.4,3.1c-7.1,0-12.9-5.8-12.9-13c0-7.2,5.8-13,12.9-13c3.2,0,6.1,1.2,8.4,3.1
	c2.3-1.9,5.2-3.1,8.4-3.1c7.1,0,12.9,5.8,12.9,13c0,7.2-5.8,13-12.9,13C45.2,38,42.3,36.9,40,34.9z"/>
<path class="st2" d="M40,34.9c2.8-2.4,4.5-5.9,4.5-9.9c0-4-1.8-7.5-4.5-9.9c2.3-1.9,5.2-3.1,8.4-3.1c7.1,0,12.9,5.8,12.9,13
	c0,7.2-5.8,13-12.9,13C45.2,38,42.3,36.9,40,34.9z"/>
<path class="st3" d="M40,15.1c2.8,2.4,4.5,5.9,4.5,9.9c0,4-1.8,7.5-4.5,9.9c-2.8-2.4-4.5-5.9-4.5-9.9C35.5,21,37.2,17.5,40,15.1z"/>
</svg>
