<?xml version="1.0" encoding="utf-8"?>
<!-- Generator: Adobe Illustrator 27.0.0, SVG Export Plug-In . SVG Version: 6.00 Build 0)  -->
<svg version="1.1" id="Capa_1" xmlns="http://www.w3.org/2000/svg" xmlns:xlink="http://www.w3.org/1999/xlink" x="0px" y="0px"
	 viewBox="0 0 80 50" style="enable-background:new 0 0 80 50;" xml:space="preserve">
<style type="text/css">
	.st0{fill:#FFFFFF;}
	.st1{fill:#00BCFF;}
	.st2{fill:#0A0080;}
</style>
<path class="st0" d="M6,0h68c3.3,0,6,2.7,6,6v38c0,3.3-2.7,6-6,6H6c-3.3,0-6-2.7-6-6V6C0,2.7,2.7,0,6,0z"/>
<path class="st1" d="M16,17.2c-7.3,0-13.2,3.8-13.2,8.5s5.9,8.8,13.2,8.8s13.2-4.1,13.2-8.8S23.3,17.2,16,17.2z"/>
<path class="st0" d="M11.7,23c0,0-0.1,0.1,0,0.3c0.2,0.3,0.8,0.4,1.5,0.3c0.4-0.1,0.9-0.5,1.3-0.8c0.5-0.4,1-0.8,1.5-1
	c0.5-0.2,0.9-0.1,1.1,0c0.2,0.1,0.5,0.2,1,0.6c0.9,0.7,4.4,3.8,5.1,4.3c0.5-0.2,2.9-1.2,5.8-1.8c-0.3-1.6-1.2-3.1-2.7-4.3
	c-2.1,0.9-4.7,1.4-7.2,0.2c0,0-1.3-0.6-2.6-0.6c-1.9,0-2.8,0.9-3.7,1.8L11.7,23L11.7,23z"/>
<path class="st0" d="M23,26.9c0,0-4.2-3.7-5.1-4.4C17.3,22.2,17,22,16.7,22c-0.2,0-0.4,0-0.6,0c-0.4,0.1-1,0.5-1.5,0.9
	c-0.5,0.4-1,0.8-1.5,0.9c-0.6,0.1-1.3,0-1.6-0.2c-0.1-0.1-0.2-0.2-0.3-0.3c-0.1-0.3,0.1-0.5,0.1-0.5l1.1-1.2
	c0.1-0.1,0.3-0.3,0.4-0.4c-0.4,0-0.7,0.1-1,0.2c-0.4,0.1-0.8,0.2-1.2,0.2c-0.2,0-1.1-0.1-1.2-0.2c-1-0.3-2.2-0.6-3.6-1.2
	c-1.6,1.2-2.7,2.7-3,4.4c0.2,0.1,0.8,0.2,1,0.2c3.7,0.8,4.8,1.7,5,1.8c0.2-0.2,0.6-0.4,0.9-0.4c0.4,0,0.8,0.2,1,0.5
	c0.2-0.2,0.5-0.3,0.9-0.3c0.2,0,0.3,0,0.5,0.1c0.4,0.1,0.6,0.4,0.7,0.7c0.1-0.1,0.3-0.1,0.5-0.1c0.2,0,0.4,0,0.6,0.1
	c0.7,0.3,0.8,1,0.7,1.5c0,0,0.1,0,0.1,0c0.8,0,1.5,0.7,1.5,1.5c0,0.2-0.1,0.5-0.2,0.7c0.2,0.1,0.8,0.4,1.3,0.3
	c0.4,0,0.5-0.2,0.6-0.3c0,0,0.1-0.1,0-0.2l-1-1.2c0,0-0.2-0.2-0.1-0.2s0.2,0,0.2,0.1c0.5,0.4,1.2,1.1,1.2,1.1c0,0,0,0.1,0.3,0.1
	c0.2,0,0.6,0,0.8-0.2c0.1,0,0.1-0.1,0.2-0.2l0,0c0.3-0.3,0-0.7,0-0.7l-1.2-1.4c0,0-0.2-0.2-0.1-0.2c0-0.1,0.2,0,0.2,0.1
	c0.4,0.3,0.9,0.9,1.5,1.4c0.1,0.1,0.6,0.4,1.2,0c0.4-0.2,0.4-0.5,0.4-0.8c0-0.3-0.3-0.5-0.3-0.5l-1.7-1.7c0,0-0.2-0.1-0.1-0.2
	c0-0.1,0.2,0,0.2,0.1c0.5,0.4,2,1.7,2,1.7c0,0,0.5,0.4,1.1,0c0.2-0.1,0.4-0.3,0.4-0.6C23.3,27.2,23,26.9,23,26.9L23,26.9z"/>
<path class="st0" d="M15,29c-0.3,0-0.5,0.1-0.6,0.1c0,0,0-0.1,0-0.2c0-0.1,0.4-1.1-0.5-1.4c-0.6-0.3-1,0-1.1,0.2c0,0,0,0,0,0
	c0-0.2-0.1-0.7-0.6-0.8c-0.8-0.2-1.3,0.3-1.4,0.5c-0.1-0.4-0.4-0.8-0.9-0.8c-0.5,0-0.9,0.4-0.9,0.9c0,0.5,0.4,0.9,0.9,0.9
	c0.2,0,0.5-0.1,0.6-0.2c0,0,0,0,0,0c0,0.2-0.1,1,0.7,1.4c0.3,0.1,0.6,0,0.9-0.1c0.1,0,0.1,0,0.1,0c0,0.2,0,0.7,0.6,0.9
	c0.5,0.2,0.8,0,0.9-0.2c0.1-0.1,0.1-0.1,0.1,0c0,0.6,0.5,1.1,1.1,1.1c0.6,0,1.1-0.5,1.1-1.1C16.1,29.6,15.6,29.1,15,29L15,29z"/>
<path class="st2" d="M16,16.8c-7.4,0-13.5,4-13.5,8.8c0,0.1,0,0.5,0,0.5c0,5.1,5.3,9.3,13.5,9.3s13.5-4.2,13.5-9.3v-0.5
	C29.4,20.8,23.4,16.8,16,16.8L16,16.8z M28.8,24.7c-2.9,0.7-5.1,1.6-5.7,1.8c-1.3-1.1-4.2-3.7-5-4.3c-0.5-0.3-0.8-0.5-1-0.6
	c-0.1,0-0.3-0.1-0.5-0.1c-0.2,0-0.4,0-0.7,0.1c-0.5,0.2-1,0.6-1.5,1l0,0c-0.5,0.4-0.9,0.8-1.3,0.8c-0.2,0-0.3,0-0.5,0
	c-0.4,0-0.8-0.1-0.9-0.3c0,0,0-0.1,0-0.1l0,0l1.1-1.2c0.9-0.9,1.7-1.7,3.6-1.8c0,0,0.1,0,0.1,0c1.2,0,2.4,0.5,2.5,0.6
	c1.1,0.5,2.3,0.8,3.4,0.8c1.2,0,2.5-0.3,3.8-0.9C27.6,21.8,28.6,23.2,28.8,24.7L28.8,24.7z M16,17.3c4,0,7.5,1.1,9.9,2.9
	c-1.1,0.5-2.2,0.8-3.3,0.8c-1.1,0-2.2-0.3-3.2-0.8c0,0-1.4-0.7-2.7-0.7c0,0-0.1,0-0.1,0c-1.6,0-2.5,0.6-3.1,1.1
	c-0.6,0-1.1,0.2-1.6,0.3c-0.4,0.1-0.8,0.2-1.1,0.2c-0.1,0-0.4,0-0.4,0c-0.4,0-2.4-0.5-3.9-1.1C8.7,18.4,12.1,17.3,16,17.3L16,17.3z
	 M5.9,20.4c1.6,0.7,3.6,1.2,4.3,1.2c0.2,0,0.4,0,0.6,0c0.4,0,0.8-0.1,1.2-0.2c0.2-0.1,0.5-0.1,0.8-0.2c-0.1,0.1-0.1,0.1-0.2,0.2
	l-1.1,1.2c-0.1,0.1-0.3,0.3-0.2,0.6c0,0.1,0.2,0.2,0.3,0.3c0.3,0.2,0.8,0.3,1.2,0.3c0.2,0,0.3,0,0.5,0c0.5-0.1,1-0.5,1.5-0.9
	c0.4-0.3,1-0.8,1.5-0.9c0.1,0,0.3-0.1,0.4-0.1c0,0,0.1,0,0.1,0c0.3,0,0.6,0.1,1.1,0.5c0.9,0.7,5.1,4.3,5.1,4.4c0,0,0.3,0.2,0.2,0.6
	c0,0.2-0.1,0.4-0.3,0.5c-0.2,0.1-0.4,0.2-0.5,0.2c-0.3,0-0.5-0.1-0.5-0.1c0,0-1.4-1.3-2-1.8c-0.1-0.1-0.2-0.1-0.2-0.1
	c0,0-0.1,0-0.1,0c-0.1,0.1,0,0.2,0.1,0.3l1.7,1.7c0,0,0.2,0.2,0.2,0.5c0,0.3-0.1,0.5-0.4,0.7c-0.2,0.1-0.4,0.2-0.6,0.2
	c-0.3,0-0.4-0.1-0.5-0.1l-0.2-0.2c-0.4-0.4-0.9-0.9-1.2-1.1c-0.1-0.1-0.2-0.1-0.2-0.1c0,0-0.1,0-0.1,0c0,0-0.1,0.1,0,0.2
	c0,0,0.1,0.1,0.1,0.1l1.2,1.4c0,0,0.2,0.3,0,0.6l0,0c0,0-0.1,0.1-0.1,0.1c-0.2,0.2-0.5,0.2-0.6,0.2c-0.1,0-0.1,0-0.2,0
	c-0.1,0-0.2,0-0.2-0.1l0,0c-0.1-0.1-0.7-0.7-1.2-1.1c-0.1-0.1-0.1-0.1-0.2-0.1c0,0-0.1,0-0.1,0c-0.1,0.1,0,0.3,0.1,0.3l1,1.1
	c0,0,0,0,0,0.1c0,0-0.2,0.2-0.5,0.2c0,0-0.1,0-0.1,0c-0.4,0-0.8-0.2-1-0.3c0.1-0.2,0.1-0.4,0.1-0.7c0-0.8-0.7-1.5-1.5-1.5
	c0,0,0,0,0,0c0-0.4,0-1.1-0.8-1.5c-0.2-0.1-0.4-0.1-0.6-0.1c-0.2,0-0.3,0-0.5,0.1c-0.2-0.3-0.4-0.5-0.8-0.6
	c-0.2-0.1-0.4-0.1-0.6-0.1c-0.3,0-0.6,0.1-0.9,0.3c-0.2-0.3-0.6-0.5-1-0.5c-0.3,0-0.7,0.1-0.9,0.4c-0.3-0.2-1.6-1.1-5-1.8
	c-0.2,0-0.5-0.1-0.8-0.2C3.4,23,4.4,21.6,5.9,20.4L5.9,20.4z M12.2,29.3L12.2,29.3L12.2,29.3c-0.1,0-0.1,0-0.2,0
	c-0.2,0.1-0.3,0.2-0.5,0.2c-0.1,0-0.2,0-0.3,0c-0.8-0.3-0.7-1.1-0.7-1.3c0,0,0-0.1,0-0.1l-0.1,0l0,0c-0.2,0.1-0.4,0.2-0.6,0.2
	c-0.5,0-0.8-0.4-0.8-0.8s0.4-0.8,0.8-0.8c0.4,0,0.8,0.3,0.8,0.7l0,0.2l0.1-0.2c0,0,0.3-0.5,1-0.5c0.1,0,0.2,0,0.4,0.1
	c0.5,0.1,0.6,0.6,0.6,0.8c0,0.1,0.1,0.1,0.1,0.1c0,0,0.1,0,0.1,0c0.1-0.1,0.3-0.3,0.6-0.3c0.1,0,0.3,0,0.5,0.1
	c0.8,0.3,0.4,1.3,0.4,1.3c-0.1,0.2-0.1,0.2,0,0.3l0,0h0c0,0,0.1,0,0.1,0c0.1,0,0.3-0.1,0.4-0.1l0,0c0.6,0,1.1,0.5,1.1,1.1
	c0,0.6-0.5,1.1-1.1,1.1c-0.6,0-1-0.4-1.1-1c0,0,0-0.2-0.1-0.2c0,0-0.1,0-0.1,0.1c-0.1,0.1-0.3,0.2-0.5,0.2c-0.1,0-0.2,0-0.3-0.1
	c-0.6-0.2-0.6-0.7-0.6-0.8C12.2,29.4,12.2,29.4,12.2,29.3L12.2,29.3z M16,33.9c-7.2,0-13-3.7-13-8.3c0-0.2,0-0.4,0-0.6
	c0.1,0,0.6,0.1,0.7,0.2C7.3,26,8.4,26.8,8.6,27c-0.1,0.2-0.1,0.3-0.1,0.5c0,0.7,0.6,1.3,1.3,1.3c0.1,0,0.2,0,0.2,0
	c0.1,0.5,0.5,0.9,1,1.1c0.2,0.1,0.3,0.1,0.5,0.1c0.1,0,0.2,0,0.3,0c0.1,0.2,0.3,0.6,0.8,0.8c0.2,0.1,0.3,0.1,0.5,0.1
	c0.1,0,0.3,0,0.4-0.1c0.2,0.6,0.8,1,1.4,1c0.4,0,0.8-0.2,1.1-0.5c0.2,0.1,0.8,0.4,1.3,0.4c0.1,0,0.1,0,0.2,0
	c0.5-0.1,0.8-0.3,0.9-0.4c0,0,0-0.1,0-0.1c0.1,0,0.3,0.1,0.4,0.1c0.3,0,0.6-0.1,0.8-0.3c0.3-0.2,0.5-0.5,0.5-0.7v0
	c0.1,0,0.2,0,0.3,0c0.3,0,0.6-0.1,0.9-0.3c0.5-0.4,0.6-0.8,0.6-1.1c0.1,0,0.2,0,0.3,0c0.3,0,0.6-0.1,0.8-0.2
	c0.3-0.2,0.5-0.5,0.6-0.9c0-0.3,0-0.5-0.2-0.7c0.9-0.4,3-1.1,5.4-1.7c0,0.1,0,0.3,0,0.4C28.9,30.2,23.1,33.9,16,33.9L16,33.9z"/>
<path class="st2" d="M75.6,19.5c-0.5-0.6-1.2-0.9-2.2-0.9s-1.7,0.3-2.2,0.9c-0.5,0.6-0.7,1.3-0.7,2.2c0,0.8,0.2,1.6,0.7,2.2
	c0.5,0.6,1.2,0.9,2.2,0.9s1.7-0.3,2.2-0.9c0.5-0.6,0.7-1.3,0.7-2.2C76.4,20.9,76.1,20.1,75.6,19.5z M74.4,23.1
	c-0.2,0.3-0.6,0.5-1,0.5s-0.8-0.2-1-0.5c-0.2-0.3-0.4-0.8-0.4-1.3s0.1-1,0.4-1.3c0.2-0.3,0.6-0.5,1-0.5s0.8,0.2,1,0.5
	c0.2,0.3,0.4,0.8,0.4,1.3S74.7,22.7,74.4,23.1L74.4,23.1z M63.1,19c-0.5-0.2-1.1-0.4-1.7-0.4c-1,0-1.7,0.3-2.1,0.8
	c-0.3,0.3-0.4,0.8-0.4,1.3h1.5c0-0.2,0.1-0.4,0.2-0.5c0.1-0.2,0.4-0.3,0.8-0.3c0.3,0,0.6,0,0.7,0.1c0.2,0.1,0.2,0.3,0.2,0.5
	c0,0.2-0.1,0.3-0.3,0.4c-0.1,0-0.3,0.1-0.6,0.1l-0.5,0.1c-0.6,0.1-1,0.2-1.3,0.4c-0.6,0.3-0.8,0.8-0.8,1.6c0,0.6,0.2,1,0.5,1.3
	c0.3,0.3,0.8,0.4,1.3,0.5c3.3,0.1,3.3-1.7,3.3-2.1v-2.2C63.9,19.8,63.6,19.3,63.1,19L63.1,19z M62.4,22.3c0,0.5-0.2,0.9-0.4,1
	c-0.3,0.2-0.6,0.3-0.9,0.3c-0.2,0-0.4-0.1-0.5-0.2c-0.1-0.1-0.2-0.3-0.2-0.6c0-0.3,0.1-0.5,0.4-0.6c0.1-0.1,0.4-0.1,0.7-0.2l0.3-0.1
	c0.2,0,0.3-0.1,0.4-0.1c0.1,0,0.2-0.1,0.3-0.1V22.3L62.4,22.3z M55.6,19.9c0.4,0,0.7,0.1,0.8,0.4c0.1,0.2,0.2,0.4,0.2,0.6h1.6
	c-0.1-0.8-0.4-1.4-0.9-1.7c-0.5-0.3-1.1-0.5-1.9-0.5c-0.9,0-1.6,0.3-2.1,0.8c-0.5,0.6-0.8,1.3-0.8,2.3c0,0.9,0.2,1.6,0.7,2.2
	s1.2,0.8,2.2,0.8s1.7-0.3,2.2-1c0.3-0.4,0.5-0.8,0.5-1.3h-1.6c0,0.3-0.1,0.6-0.3,0.8c-0.2,0.2-0.4,0.3-0.8,0.3
	c-0.5,0-0.9-0.2-1.1-0.7c-0.1-0.3-0.2-0.6-0.2-1s0-0.8,0.2-1.1C54.6,20.2,55,19.9,55.6,19.9L55.6,19.9z M52.2,18.7
	c-3.4,0-3.2,3-3.2,3v3h1.5v-2.8c0-0.5,0.1-0.8,0.2-1c0.2-0.4,0.6-0.6,1.2-0.6c0,0,0.1,0,0.2,0c0.1,0,0.2,0,0.3,0v-1.6
	C52.3,18.7,52.3,18.7,52.2,18.7C52.2,18.7,52.2,18.7,52.2,18.7L52.2,18.7z M47.8,19.8c-0.3-0.4-0.6-0.7-1-0.9
	c-0.4-0.2-0.9-0.3-1.4-0.3c-0.8,0-1.5,0.3-2.1,0.8c-0.5,0.5-0.8,1.3-0.8,2.3c0,1.1,0.3,1.8,0.9,2.3c0.6,0.5,1.3,0.7,2,0.7
	c0.9,0,1.7-0.3,2.2-0.8c0.3-0.3,0.5-0.6,0.5-0.9h-1.6c-0.1,0.1-0.1,0.2-0.2,0.2c-0.2,0.2-0.5,0.2-0.8,0.2c-0.3,0-0.6,0-0.8-0.2
	c-0.4-0.2-0.6-0.6-0.6-1.2h4.2c0-0.5,0-0.9,0-1.2C48.2,20.5,48,20.1,47.8,19.8L47.8,19.8z M44.1,21.1c0-0.4,0.2-0.7,0.4-0.9
	c0.2-0.2,0.5-0.3,0.9-0.3c0.4,0,0.7,0.1,0.9,0.3c0.2,0.2,0.4,0.5,0.4,0.9L44.1,21.1L44.1,21.1z M39.5,18.6c-0.7,0-1.3,0.3-1.7,0.8
	c-0.4-0.5-1-0.8-1.7-0.8c-1.5,0-2.5,1.1-2.5,2.5v3.5H35v-3.5c0-0.6,0.4-1.1,1.1-1.1c0.9,0,1,0.8,1,1.1v3.5h1.4v-3.5
	c0-0.6,0.4-1.1,1.1-1.1c0.9,0,1,0.8,1,1.1v3.5h1.4v-3.5C41.9,19.7,41,18.6,39.5,18.6L39.5,18.6z M68.4,17.9v1.6
	c-0.2-0.3-0.4-0.5-0.7-0.6s-0.6-0.2-0.9-0.2c-0.8,0-1.4,0.3-1.8,0.8c-0.5,0.6-0.7,1.4-0.7,2.4c0,0.9,0.2,1.6,0.7,2.1
	c0.5,0.5,1.4,0.8,2.2,0.8c2.8,0,2.8-2.4,2.8-2.4v-5.5C70,16.8,68.4,16.7,68.4,17.9L68.4,17.9z M68.2,23.1c-0.2,0.3-0.6,0.5-1,0.5
	s-0.8-0.2-1-0.5c-0.2-0.3-0.3-0.8-0.3-1.3c0-0.5,0.1-0.9,0.3-1.2c0.2-0.3,0.5-0.5,1-0.5c0.3,0,0.5,0.1,0.8,0.3
	c0.4,0.3,0.5,0.8,0.5,1.6C68.5,22.3,68.4,22.7,68.2,23.1L68.2,23.1z M36.8,27c-1.3-0.1-1.9,0.2-2.3,0.6c-0.6,0.4-0.9,1.1-0.9,2.1V35
	h0.7c0.2,0,0.4-0.1,0.5-0.2c0.2-0.1,0.2-0.3,0.2-0.6v-2c0.2,0.3,0.4,0.5,0.7,0.7c0.3,0.1,0.6,0.2,1,0.2c0.7,0,1.3-0.3,1.7-0.8
	c0.4-0.6,0.7-1.3,0.7-2.3c0-0.9-0.2-1.6-0.7-2.2C38.1,27.3,37.5,27,36.8,27L36.8,27z M37.4,31.3c-0.2,0.3-0.5,0.5-0.9,0.5
	c-0.4,0-0.7-0.1-1-0.5c-0.2-0.3-0.3-0.7-0.3-1.3c0-0.6,0.1-1,0.3-1.3c0.2-0.3,0.5-0.5,0.9-0.5s0.7,0.2,1,0.5
	c0.2,0.3,0.3,0.8,0.3,1.3C37.7,30.6,37.6,31,37.4,31.3z M49.9,27.5c-0.5-0.4-1-0.6-2-0.6c-0.9,0-1.6,0.3-2,0.8
	c-0.4,0.6-0.6,1.3-0.6,2.2c0,0.8,0.2,1.4,0.5,1.9c0.3,0.5,0.7,0.8,1.1,1s0.9,0.2,1.3,0.1c0.4-0.1,0.8-0.4,1.1-0.8v0.4
	c0,0.5-0.1,0.8-0.3,1.1c-0.2,0.2-0.4,0.4-0.7,0.4c-0.2,0-0.5,0-0.7-0.1c-0.2-0.1-0.4-0.3-0.5-0.5h-1.6c0.4,1.3,1.2,1.8,2.5,1.9
	c2.2,0.2,2.9-1.7,2.9-2.7v-3.1C50.9,28.6,50.5,28,49.9,27.5L49.9,27.5z M49.3,30.6c-0.1,0.3-0.1,0.6-0.3,0.8
	c-0.3,0.4-0.7,0.5-1.3,0.4c-0.6-0.1-0.9-0.7-0.9-1.7c0-0.5,0.1-0.9,0.3-1.3s0.5-0.6,1-0.6c0.4,0,0.7,0.1,0.8,0.4
	c0.2,0.3,0.3,0.6,0.4,0.9C49.4,29.9,49.4,30.3,49.3,30.6L49.3,30.6z M44,27.4C43.5,27.1,43,27,42.3,27c-1,0-1.7,0.3-2.1,0.8
	c-0.3,0.3-0.4,0.8-0.4,1.3h1.5c0-0.2,0.1-0.4,0.2-0.5c0.1-0.2,0.4-0.3,0.8-0.3c0.3,0,0.6,0,0.7,0.1s0.2,0.3,0.2,0.5
	c0,0.2-0.1,0.3-0.3,0.4c-0.1,0-0.3,0.1-0.6,0.1l-0.5,0.1c-0.6,0.1-1,0.2-1.3,0.4c-0.6,0.3-0.8,0.8-0.8,1.6c0,0.6,0.2,1,0.5,1.3
	c0.3,0.3,0.8,0.4,1.3,0.5c3.3,0.1,3.3-1.7,3.3-2.1v-2.2C44.8,28.1,44.5,27.6,44,27.4L44,27.4z M43.3,30.7c0,0.5-0.2,0.9-0.4,1
	c-0.3,0.2-0.6,0.3-0.9,0.3c-0.2,0-0.4-0.1-0.5-0.2c-0.1-0.1-0.2-0.3-0.2-0.6c0-0.3,0.1-0.5,0.4-0.6c0.1-0.1,0.4-0.1,0.7-0.2l0.3-0.1
	c0.2,0,0.3-0.1,0.4-0.1c0.1,0,0.2-0.1,0.3-0.1V30.7L43.3,30.7z M56.6,27.9c-0.5-0.6-1.2-0.9-2.2-0.9s-1.7,0.3-2.2,0.9
	c-0.5,0.6-0.7,1.3-0.7,2.2c0,0.8,0.2,1.6,0.7,2.2c0.5,0.6,1.2,0.9,2.2,0.9s1.7-0.3,2.2-0.9c0.5-0.6,0.7-1.3,0.7-2.2
	C57.4,29.2,57.1,28.5,56.6,27.9z M55.4,31.4c-0.2,0.3-0.6,0.5-1,0.5c-0.4,0-0.8-0.2-1-0.5C53.1,31.1,53,30.6,53,30
	c0-0.6,0.1-1,0.4-1.3c0.2-0.3,0.6-0.5,1-0.5s0.8,0.2,1,0.5c0.2,0.3,0.4,0.8,0.4,1.3C55.8,30.6,55.6,31.1,55.4,31.4z"/>
</svg>
