<?xml version="1.0" encoding="utf-8"?>
<!-- Generator: Adobe Illustrator 27.0.0, SVG Export Plug-In . SVG Version: 6.00 Build 0)  -->
<svg version="1.1" id="Capa_1" xmlns="http://www.w3.org/2000/svg" xmlns:xlink="http://www.w3.org/1999/xlink" x="0px" y="0px"
	 viewBox="0 0 80 50" style="enable-background:new 0 0 80 50;" xml:space="preserve">
<style type="text/css">
	.st0{fill:#FFFFFF;}
	.st1{fill:#003087;}
	.st2{fill:#009CDE;}
</style>
<path class="st0" d="M6,0h68c3.3,0,6,2.7,6,6v38c0,3.3-2.7,6-6,6H6c-3.3,0-6-2.7-6-6V6C0,2.7,2.7,0,6,0z"/>
<path class="st1" d="M18.1,18.9c-0.8-0.6-1.9-0.9-3.3-0.9H9.6c-0.4,0-0.6,0.2-0.7,0.6L6.9,31.9c0,0.1,0,0.2,0.1,0.4
	c0.1,0.1,0.2,0.2,0.3,0.2h2.5c0.4,0,0.7-0.2,0.7-0.6l0.6-3.6c0-0.2,0.1-0.3,0.2-0.4c0.1-0.1,0.3-0.2,0.5-0.2c0.2,0,0.4,0,0.6,0
	c0.2,0,0.4,0,0.6,0c0.2,0,0.4,0,0.5,0c1.9,0,3.3-0.5,4.4-1.6c1.1-1,1.6-2.5,1.6-4.4C19.3,20.4,18.9,19.5,18.1,18.9L18.1,18.9z
	 M15.4,22.9c-0.1,0.8-0.4,1.3-0.8,1.5c-0.5,0.2-1.1,0.4-1.9,0.4l-1.1,0l0.6-3.5c0-0.2,0.2-0.4,0.4-0.4h0.6c0.9,0,1.5,0.1,1.9,0.4
	C15.4,21.6,15.5,22.1,15.4,22.9L15.4,22.9z"/>
<path class="st2" d="M72.7,18.1h-2.4c-0.2,0-0.4,0.1-0.4,0.4l-2.1,13.5l0,0.1c0,0.1,0,0.2,0.1,0.3c0.1,0.1,0.2,0.1,0.3,0.1h2.1
	c0.4,0,0.6-0.2,0.7-0.6l2.1-13.2v0C73.1,18.2,73,18.1,72.7,18.1L72.7,18.1z"/>
<path class="st1" d="M43.8,23.3c0-0.1,0-0.2-0.1-0.3c-0.1-0.1-0.2-0.1-0.3-0.1h-2.5c-0.2,0-0.4,0.1-0.6,0.3l-3.4,5l-1.4-4.9
	c-0.1-0.3-0.3-0.5-0.7-0.5h-2.4c-0.1,0-0.2,0-0.3,0.1c-0.1,0.1-0.1,0.2-0.1,0.3c0,0,0.2,0.7,0.6,1.9c0.4,1.2,0.9,2.6,1.4,4
	c0.5,1.4,0.7,2.2,0.8,2.3c-1.8,2.4-2.7,3.7-2.7,3.9c0,0.3,0.1,0.4,0.4,0.4h2.5c0.2,0,0.4-0.1,0.6-0.3l8.3-11.9
	C43.8,23.5,43.8,23.4,43.8,23.3L43.8,23.3z"/>
<path class="st2" d="M67,22.8h-2.5c-0.3,0-0.5,0.4-0.5,1.1c-0.6-0.9-1.6-1.3-3.1-1.3c-1.6,0-2.9,0.6-4,1.7c-1.1,1.2-1.6,2.5-1.6,4.1
	c0,1.3,0.4,2.3,1.1,3c0.7,0.8,1.7,1.1,3,1.1c0.6,0,1.3-0.1,1.9-0.4c0.6-0.3,1.2-0.6,1.5-1c0,0,0,0.1-0.1,0.3c0,0.2-0.1,0.3-0.1,0.4
	c0,0.3,0.1,0.5,0.4,0.5h2.2c0.4,0,0.6-0.2,0.7-0.6l1.3-8.4c0-0.1,0-0.2-0.1-0.4C67.2,22.9,67.1,22.8,67,22.8L67,22.8z M62.8,29.2
	c-0.6,0.5-1.2,0.8-2,0.8c-0.6,0-1.1-0.2-1.5-0.5c-0.4-0.3-0.6-0.8-0.6-1.4c0-0.8,0.3-1.5,0.8-2c0.5-0.6,1.2-0.8,2-0.8
	c0.6,0,1.1,0.2,1.5,0.5c0.4,0.4,0.6,0.8,0.6,1.5C63.6,28,63.3,28.7,62.8,29.2L62.8,29.2z"/>
<path class="st1" d="M30.2,22.8h-2.5c-0.3,0-0.5,0.4-0.6,1.1c-0.6-0.9-1.6-1.3-3.1-1.3c-1.6,0-2.9,0.6-4,1.7
	c-1.1,1.2-1.6,2.5-1.6,4.1c0,1.3,0.4,2.3,1.1,3c0.7,0.8,1.7,1.1,3,1.1c0.6,0,1.2-0.1,1.9-0.4c0.6-0.3,1.2-0.6,1.6-1
	C26,31.5,26,31.7,26,31.9c0,0.3,0.1,0.5,0.4,0.5h2.2c0.4,0,0.6-0.2,0.7-0.6l1.3-8.4c0-0.1,0-0.2-0.1-0.4
	C30.5,22.9,30.4,22.8,30.2,22.8L30.2,22.8z M26,29.2c-0.6,0.5-1.2,0.8-2,0.8c-0.6,0-1.1-0.2-1.5-0.5c-0.4-0.3-0.6-0.8-0.6-1.4
	c0-0.8,0.3-1.5,0.8-2c0.5-0.6,1.2-0.8,2-0.8c0.6,0,1.1,0.2,1.5,0.5c0.4,0.4,0.6,0.8,0.6,1.5C26.8,28,26.6,28.7,26,29.2L26,29.2z"/>
<path class="st2" d="M54.8,18.9c-0.8-0.6-1.9-0.9-3.3-0.9h-5.1c-0.4,0-0.7,0.2-0.7,0.6l-2.1,13.2c0,0.1,0,0.2,0.1,0.4
	c0.1,0.1,0.2,0.2,0.3,0.2h2.7c0.3,0,0.4-0.1,0.5-0.4l0.6-3.8c0-0.2,0.1-0.3,0.2-0.4c0.1-0.1,0.3-0.2,0.5-0.2c0.2,0,0.4,0,0.6,0
	c0.2,0,0.4,0,0.6,0c0.2,0,0.4,0,0.5,0c1.9,0,3.3-0.5,4.4-1.6c1.1-1,1.6-2.5,1.6-4.4C56.1,20.4,55.7,19.5,54.8,18.9L54.8,18.9z
	 M51.5,24.2c-0.5,0.3-1.2,0.5-2.1,0.5l-1,0l0.6-3.5c0-0.2,0.2-0.4,0.4-0.4h0.6c0.5,0,0.9,0,1.1,0.1c0.3,0,0.6,0.2,0.8,0.4
	c0.3,0.2,0.4,0.6,0.4,1C52.2,23.3,52,23.9,51.5,24.2z"/>
</svg>
