<?xml version="1.0" encoding="utf-8"?>
<!-- Generator: Adobe Illustrator 27.0.0, SVG Export Plug-In . SVG Version: 6.00 Build 0)  -->
<svg version="1.1" id="Capa_1" xmlns="http://www.w3.org/2000/svg" xmlns:xlink="http://www.w3.org/1999/xlink" x="0px" y="0px"
	 viewBox="0 0 80 50" style="enable-background:new 0 0 80 50;" xml:space="preserve">
<style type="text/css">
	.st0{fill:#FFFFFF;}
	.st1{fill:url(#SVGID_1_);}
	.st2{fill:#FD71C8;}
</style>
<path class="st0" d="M6,0h68c3.3,0,6,2.7,6,6v38c0,3.3-2.7,6-6,6H6c-3.3,0-6-2.7-6-6V6C0,2.7,2.7,0,6,0z"/>
<linearGradient id="SVGID_1_" gradientUnits="userSpaceOnUse" x1="25.2434" y1="42.54" x2="55.4115" y2="12.3719">
	<stop  offset="0" style="stop-color:#2982F8"/>
	<stop  offset="0.3295" style="stop-color:#10BCDF"/>
	<stop  offset="0.6006" style="stop-color:#05D7D3"/>
	<stop  offset="1" style="stop-color:#00E2CE"/>
</linearGradient>
<path class="st1" d="M42.3,6.9c-10.3,0-18.6,8.3-18.6,18.6c0,2.2,0.4,4.2,1,6.2c0.4,2.4,0.5,3.5,0.2,5.2c-0.2,1.2-0.9,2-0.8,3.1
	c0.1,1,0.2,1.6,1.1,2.6c1.1,1.1,2.1,1,2.4,1.1c1.1,0.2,1.9-0.5,3.1-0.6c1.9-0.2,3.2-0.4,6.3,0.4c0,0,0,0,0,0
	c1.7,0.5,3.4,0.8,5.3,0.8c10.3,0,18.6-8.3,18.6-18.6S52.5,6.9,42.3,6.9z"/>
<circle class="st2" cx="44.8" cy="19.5" r="1.3"/>
<path class="st0" d="M34.1,21c-0.7,0-1.3,0.1-1.9,0.4c-0.7,0.4-0.8,0.1-0.9,0c-0.1-0.1-0.1-0.2-0.4-0.2h-1.2c0,0-0.8,0-0.8,0.5
	c0,0,0.1,1.7,0.1,2.8v8.6c0,0.7,0.5,1.3,1.1,1.3c0.7,0.1,1.4-0.5,1.4-1.2v-2.1c0-0.3,0.3-0.5,0.6-0.4c0.5,0.2,1.1,0.3,1.6,0.3
	c2.1,0,4.4-1.6,4.4-5.1C38.3,23.1,36.5,21,34.1,21z M33.6,28.9c-0.9,0-1.7-0.6-1.9-1.5c0,0,0,0,0,0c0-0.2-0.1-0.4-0.1-0.5v-1.5
	c0-0.2,0.1-0.4,0.1-0.5c0.2-0.9,1-1.6,1.9-1.6c1.5,0,2.1,1.4,2.1,2.8C35.7,27.8,34.9,28.9,33.6,28.9z M52.5,21
	c-0.6,0-1.2,0.1-1.7,0.4c-0.2,0.1-0.7,0.1-0.9,0c-0.1-0.1-0.2-0.2-0.4-0.2h-1.4c-0.3,0-0.5,0.2-0.5,0.5c0,0.7,0.1,1.4,0.1,2.3v5.6
	c0,0.4,0.1,0.5,0.1,0.5c0.2,0.5,0.7,0.8,1.3,0.8c0.7,0,1.2-0.6,1.2-1.3v-4.4c0-0.2,0-0.4,0.1-0.6l0,0c0.2-0.6,0.8-1.3,1.7-1.3
	c1,0,1.5,0.7,1.5,2.1v4.2c0,1.1,0.8,1.3,1.4,1.2c0.7,0,1.2-0.6,1.2-1.3v-4.3C56.1,22.1,54.2,21,52.5,21z M44.8,21.2
	c-0.5,0-1.3,0.3-1.3,1v7.3c0,1,0.7,1.2,1.3,1.2c0.7,0,1.2-0.6,1.2-1.2v-7.1C46.1,21.8,45.5,21.2,44.8,21.2z M40.6,17.2
	c-0.6,0-1.2,0.5-1.3,1.1l0,0v11.4l0,0c0.1,0.6,0.6,1.1,1.3,1.1c0.7,0,1.3-0.6,1.3-1.2V18.4C41.8,17.7,41.3,17.2,40.6,17.2z"/>
</svg>
