<?xml version="1.0" encoding="utf-8"?>
<!-- Generator: Adobe Illustrator 27.0.0, SVG Export Plug-In . SVG Version: 6.00 Build 0)  -->
<svg version="1.1" id="Capa_1" xmlns="http://www.w3.org/2000/svg" xmlns:xlink="http://www.w3.org/1999/xlink" x="0px" y="0px"
	 viewBox="0 0 80 50" style="enable-background:new 0 0 80 50;" xml:space="preserve">
<style type="text/css">
	.st0{fill:#FFFFFF;}
	.st1{fill-rule:evenodd;clip-rule:evenodd;fill:#172B85;}
</style>
<path class="st0" d="M6,0h68c3.3,0,6,2.7,6,6v38c0,3.3-2.7,6-6,6H6c-3.3,0-6-2.7-6-6V6C0,2.7,2.7,0,6,0z"/>
<path class="st1" d="M22,35.5h-5.8l-4.3-16.5c-0.2-0.8-0.6-1.4-1.3-1.8c-1.6-0.8-3.4-1.4-5.3-1.8v-0.6h9.3c1.3,0,2.3,1,2.4,2.1
	l2.3,11.9l5.8-14h5.6L22,35.5z M33.8,35.5h-5.5l4.5-20.7h5.5L33.8,35.5z M45.4,20.5c0.2-1.1,1.1-1.8,2.3-1.8c1.8-0.2,3.7,0.2,5.3,1
	l1-4.5c-1.6-0.6-3.4-1-5-1c-5.3,0-9.2,2.9-9.2,6.8c0,3,2.7,4.6,4.7,5.6c2.1,1,2.9,1.6,2.7,2.5c0,1.4-1.6,2.1-3.2,2.1
	c-1.9,0-3.9-0.5-5.6-1.3l-1,4.5c1.9,0.8,4,1.1,5.9,1.1c5.9,0.2,9.6-2.7,9.6-7C53,23.2,45.4,22.9,45.4,20.5z M72.1,35.5l-4.3-20.7
	h-4.7c-1,0-1.9,0.6-2.3,1.6l-8,19.1h5.6l1.1-3h6.9l0.6,3H72.1z M63.9,20.4l1.6,7.8H61L63.9,20.4z"/>
</svg>
