<?xml version="1.0" encoding="utf-8"?>
<!-- Generator: Adobe Illustrator 27.0.0, SVG Export Plug-In . SVG Version: 6.00 Build 0)  -->
<svg version="1.1" id="Capa_1" xmlns="http://www.w3.org/2000/svg" xmlns:xlink="http://www.w3.org/1999/xlink" x="0px" y="0px"
	 viewBox="0 0 80 50" style="enable-background:new 0 0 80 50;" xml:space="preserve">
<style type="text/css">
	.st0{fill:#FFFFFF;}
	.st1{fill:#6F0375;}
	.st2{fill:#00D0B4;}
</style>
<path class="st0" d="M6,0h68c3.3,0,6,2.7,6,6v38c0,3.3-2.7,6-6,6H6c-3.3,0-6-2.7-6-6V6C0,2.7,2.7,0,6,0z"/>
<path class="st1" d="M51.4,32.1c-1.8,0.1-3.6,0.3-5.4,0.5c-1.1,0.1-2.2,0.3-3.4,0.4c0.1-0.8,0.2-1.6,0.4-2.4
	c0.2,0.1,0.2,0.2,0.3,0.2c1.1,0.8,2.2,0.7,3.1-0.3c0.7-0.8,1.1-1.7,1.4-2.7c0.5-1.6,0.8-3.1,0.3-4.8c-0.4-1.4-1.8-1.8-2.8-0.7
	c-0.2,0.2-0.4,0.4-0.6,0.6c0-0.2,0-0.4-0.2-0.5c-0.5-0.5-1.4-0.3-1.5,0.4c-0.4,2-0.8,4-1.2,6c-0.1,0.2-0.3,0.5-0.4,0.7
	c-0.1,0.1-0.3,0.1-0.5,0.2c-0.1-0.2-0.2-0.4-0.2-0.6c0.1-0.7,0.2-1.4,0.3-2.1c0.2-1.2,0.5-2.4,0.8-3.6c0.1-0.4-0.1-0.7-0.6-0.8
	c-0.7-0.2-0.8-0.1-1.2,0.6c-1.1-0.7-2-0.6-2.9,0.4c-0.8,0.8-1.3,1.8-1.7,2.9c-0.5,1.5-0.8,3-0.4,4.5c0.2,0.7,0.5,1.2,1.2,1.4
	c0.8,0.2,1.4,0,1.9-0.6c0.2-0.2,0.4-0.5,0.6-0.8c0.2,0.5,0.5,1,1,0.9c0.5,0,1-0.3,1.5-0.4c-0.1,0.4-0.2,0.8-0.2,1.3
	c0,0.4-0.2,0.5-0.6,0.6c-2,0.3-4,0.6-6.1,1c-0.6,0.1-1.3,0.2-2,0.3c0.3-1,0.6-2,0.8-2.9c0.7-2.6,1.4-5.2,2.1-7.8
	c0.2-0.7-0.1-0.9-0.8-0.8c-0.8,0.2-1.3,0.7-1.6,1.5c-0.6,1.6-1.1,3.1-1.8,4.7c-0.2,0.4-0.6,0.8-0.9,1.1c-0.2,0.2-0.6,0.2-0.7,0.1
	c-0.2-0.1-0.3-0.5-0.3-0.7c0-0.5,0.2-0.9,0.3-1.4c0.3-1,0.6-1.9,0.8-2.9c0.1-0.6-0.4-1.1-1.1-1.2c-0.5,0-0.6,0.2-0.6,0.9
	c0,0.4-0.1,0.7-0.2,1.1c-0.2,0.5-0.4,1-0.5,1.5c-0.3,1-0.5,2-0.7,3c-0.1,0.7,0,1.5,0.7,1.9c0.7,0.4,1.4,0.3,2-0.2
	c0.4-0.3,0.7-0.6,1.1-0.9c-0.4,1.1-0.7,2.2-1.1,3.2c-0.1,0.2-0.3,0.3-0.4,0.4c-0.9,0.5-1.8,0.9-2.7,1.5c-1.9,1.3-3.2,3-3.7,5.3
	c-0.2,1,0,1.9,0.8,2.6c0.9,0.7,1.8,0.6,2.8,0.1c0.9-0.4,1.5-1.2,2.1-1.9c1.2-1.6,1.9-3.4,2.5-5.3c0.1-0.4,0.3-0.5,0.7-0.6
	c2.1-0.4,4.2-0.9,6.2-1.3c0.7-0.1,1.4-0.2,2.1-0.4c0,0.2,0,0.4,0,0.6c0.1,0.3,0.2,0.6,0.5,0.7c0.2,0.1,0.6-0.1,0.8-0.3
	c0.2-0.2,0.4-0.5,0.4-0.8c0.1-0.3,0.2-0.4,0.5-0.5c1.9-0.2,3.8-0.5,5.7-0.7c1.1-0.2,2.3-0.3,3.4-0.5c0.6-0.1,0.8-0.6,0.5-1.1
	C52.2,32.3,51.8,32.1,51.4,32.1z M43.6,29c0.3-1.3,0.7-2.6,1.1-3.9c0.1-0.4,0.5-0.9,0.8-1.2c0.4-0.4,0.8-0.3,0.9,0.3
	c0.1,0.3,0.1,0.6,0.1,0.7c-0.1,1.3-0.4,2.5-0.9,3.5c-0.3,0.6-0.8,1.1-1.6,1.1C43.7,29.5,43.5,29.4,43.6,29z M39.7,25
	c-0.4,1.4-0.9,2.9-1.4,4.3c-0.1,0.2-0.2,0.3-0.3,0.5c-0.3,0.4-0.8,0.3-1.1-0.1c-0.2-0.4-0.2-0.8-0.3-1.1c0.2-1.4,0.5-2.7,1.5-3.7
	c0.3-0.2,0.6-0.4,0.9-0.5C39.5,24.3,39.9,24.6,39.7,25z M26.9,42.3c-0.2,0.3-0.5,0.5-0.8,0.7c-0.2,0.1-0.5,0.2-0.7,0.1
	c-0.2-0.1-0.3-0.5-0.2-0.7c0.1-0.5,0.3-1,0.6-1.4c0.8-1.4,2-2.5,3.6-3.2C28.7,39.5,28,41,26.9,42.3z M50.4,27.3
	c0.1-0.3,0.2-0.4,0.5-0.5c1.9-0.4,3.4-1.9,3.7-3.8c0.2-1.2-0.5-2-1.7-2.1c-0.7,0-1.2,0.2-1.7,0.6c-1.9,1.8-2.7,4-2.9,6.5
	c0,0.4,0.1,0.8,0.1,1.2c0.2,1.4,1.3,2,2.6,1.7c1.1-0.3,2-1,2.8-1.8c0.5-0.6,0.6-0.8,0.3-1.5c-0.3-0.6-0.5-0.6-0.9-0.1
	c-0.4,0.4-0.9,0.8-1.4,1.2c-0.4,0.3-0.8,0.4-1.2,0.1c-0.4-0.3-0.3-0.8-0.3-1.3C50.3,27.4,50.4,27.3,50.4,27.3z M52,23
	c0.2-0.3,0.5-0.5,0.8-0.3c0.2,0.1,0.2,0.6,0.1,0.8c-0.3,0.9-1,1.3-1.9,1.6c-0.1,0-0.1-0.1-0.2-0.1C51.2,24.3,51.6,23.6,52,23z"/>
<path class="st2" d="M40.7,5.1c-3.9,0-7,3.1-7,7c0,1.8,0.7,3.5,1.9,4.8l-0.2,3c0,0.3,0.3,0.4,0.5,0.3l2.2-1.5
	c0.8,0.3,1.7,0.5,2.6,0.5c3.9,0,7-3.1,7-7S44.6,5.1,40.7,5.1z M41.2,14.9c-0.2,0.3-0.4,0.5-0.7,0.7c-0.3,0.2-0.7,0.2-1.1,0.2
	c-0.7,0-1.2-0.2-1.6-0.6c-0.4-0.4-0.6-0.9-0.6-1.6c0,0,0-0.1,0.1-0.2c0.1-0.1,0.2-0.1,0.3-0.1c0.2,0,0.3,0,0.4,0.1
	c0.1,0.1,0.1,0.1,0.1,0.2c0,0.3,0.1,0.5,0.2,0.7c0.1,0.2,0.3,0.3,0.5,0.4c0.2,0.1,0.4,0.2,0.7,0.2c0.4,0,0.6-0.1,0.8-0.2
	c0.2-0.2,0.3-0.4,0.3-0.6c0-0.2,0-0.3-0.1-0.4c-0.1-0.1-0.2-0.2-0.3-0.3c-0.2-0.1-0.5-0.2-1-0.3c-0.5-0.1-0.8-0.3-1.1-0.4
	c-0.2-0.2-0.4-0.3-0.5-0.6c-0.1-0.2-0.2-0.5-0.2-0.8c0-0.5,0.2-1,0.5-1.3c0.3-0.3,0.8-0.5,1.4-0.5c0.4,0,0.7,0.1,1,0.2
	c0.3,0.2,0.5,0.4,0.7,0.7c0.2,0.3,0.3,0.6,0.3,1c0,0,0,0.2-0.1,0.3c-0.1,0.1-0.1,0.1-0.3,0.1c-0.2,0-0.3,0-0.4-0.1
	c-0.1-0.1-0.1-0.2-0.1-0.2c0-0.3-0.1-0.6-0.3-0.8c-0.2-0.2-0.4-0.2-0.8-0.2c-0.3,0-0.6,0.1-0.8,0.2c-0.2,0.1-0.2,0.3-0.2,0.5
	c0,0.2,0.1,0.4,0.2,0.5c0.1,0.1,0.3,0.2,0.9,0.4c0.5,0.1,0.9,0.3,1.1,0.4l0,0c0.3,0.2,0.6,0.4,0.8,0.7c0.2,0.3,0.3,0.6,0.3,1
	C41.5,14.3,41.4,14.6,41.2,14.9z M45.4,10.4l-2.7,4.9c-0.1,0.2-0.3,0.3-0.4,0.3c-0.1,0-0.2,0-0.2-0.1c-0.2-0.1-0.3-0.4-0.2-0.7
	l2.7-4.9c0.1-0.2,0.4-0.3,0.7-0.2l0,0C45.4,9.9,45.5,10.2,45.4,10.4z"/>
</svg>
